# xmcd
#
# Track frame offsets:
#	150
#	15397
#	30707
#	46325
#	61380
#	73960
#	89712
#	105607
#	120790
#	134607
#
# Disc length: 1986 seconds
#
# Revision: 0
# Processed by: cddbd v1.5.2PL0 Copyright (c) Steve Scherf et al.
# Submitted via: EasyCDDAExtractor 7.5.0.1
#
DISCID=8707c00a
DTITLE=Ohta San - Chotto Matte Kudasai
DYEAR=1995
DGENRE=Hawaiian
TTITLE0=Hawaii Calls
TTITLE1=Jungle Rain
TTITLE2=I'll Weave a Lei of Stars
TTITLE3=Blue Darling
TTITLE4=June in Hawaii
TTITLE5=Spring Spends the Summer in Hawaii
TTITLE6=Chotto Matte Kudasai
TTITLE7=On a Coconut Island
TTITLE8=Flying
TTITLE9=Happy Talk
EXTD=
EXTT0=
EXTT1=
EXTT2=
EXTT3=
EXTT4=
EXTT5=
EXTT6=
EXTT7=
EXTT8=
EXTT9=
PLAYORDER=
